<svg xmlns="http://www.w3.org/2000/svg" xmlns:xlink="http://www.w3.org/1999/xlink" xmlns:lucid="lucid" width="902" height="478"><g transform="translate(1475 787)" lucid:page-tab-id="0_0"><path d="M-1206-914a6 6 0 0 1 6-6h768a6 6 0 0 1 6 6V-1.33a6 6 0 0 1-6 6h-768a6 6 0 0 1-6-6z" stroke="#000" stroke-opacity="0" fill="#fff" fill-opacity="0"/><use xlink:href="#a" transform="matrix(1,0,0,1,-1201,-915) translate(145.1851851851859 574.8194444444431)"/><path d="M-1216.98-637c82.02 0 148.5 66.5 148.5 148.5s-66.48 148.5-148.5 148.5h-77.9c-82.02 0-148.5-66.5-148.5-148.5S-1376.9-637-1294.9-637z" stroke="#000" stroke-width="10" fill-opacity="0"/><path d="M-1217.57-618.44c71.76 0 129.93 58.18 129.93 129.94 0 71.76-58.17 129.94-129.93 129.94H-1296c-71.75 0-129.93-58.18-129.93-129.94 0-71.76 58.18-129.94 129.94-129.94z" stroke="#000" stroke-width="10" fill-opacity="0"/><path d="M-1217.84-600c60.78 0 110.06 49.28 110.06 110.06 0 60.8-49.28 110.06-110.06 110.06h-79.1c-60.78 0-110.06-49.27-110.06-110.06 0-60.78 49.28-110.06 110.06-110.06z" stroke="#000" stroke-width="10" fill-opacity="0"/><path d="M-1218-580c49.7 0 90 40.3 90 90s-40.3 90-90 90h-80c-49.7 0-90-40.3-90-90s40.3-90 90-90z" stroke="#000" stroke-width="10" fill-opacity="0"/><path d="M-1388-692a6 6 0 0 1 6-6h248a6 6 0 0 1 6 6v28a6 6 0 0 1-6 6h-248a6 6 0 0 1-6-6z"/><defs><path d="M128 0H69L1-190h53L99-40l48-150h52" id="b"/><path d="M25 0v-261h50V0H25" id="c"/><g id="a"><use transform="matrix(1.5987654320987608,0,0,1.5987654320987608,0,0)" xlink:href="#b"/><use transform="matrix(1.5987654320987608,0,0,1.5987654320987608,319.75308641975215,0)" xlink:href="#c"/></g></defs></g></svg>